<svg width="28.000000" height="27.000000" viewBox="0 0 28 27" xmlns="http://www.w3.org/2000/svg" xmlns:xlink="http://www.w3.org/1999/xlink">
	<desc>
			Created with Pixso.
	</desc>
	<defs/>
	<path id="Vector" d="M20.1 0C17.71 0 15.48 1.07 14 2.87C12.51 1.07 10.28 0 7.89 0C3.54 0 0 3.52 0 7.85C0 11.24 2.03 15.17 6.04 19.51C9.13 22.86 12.48 25.45 13.44 26.16L14 26.58L14.55 26.16C15.5 25.45 18.86 22.86 21.95 19.52C25.96 15.17 28 11.24 28 7.85C28 3.52 24.45 0 20.1 0ZM20.59 18.27C18.05 21.02 15.32 23.25 14 24.27C12.67 23.25 9.94 21.02 7.4 18.27C3.76 14.33 1.84 10.73 1.84 7.85C1.84 4.53 4.56 1.83 7.89 1.83C10.09 1.83 12.12 3.02 13.19 4.94L14 6.39L14.8 4.94C15.87 3.02 17.9 1.83 20.1 1.83C23.43 1.83 26.15 4.53 26.15 7.85C26.15 10.73 24.23 14.33 20.59 18.27Z" fill-opacity="1.000000" fill-rule="nonzero"/>
</svg>
